<?xml version="1.0" standalone="no"?>
<!DOCTYPE svg PUBLIC "-//W3C//DTD SVG 20010904//EN"
 "http://www.w3.org/TR/2001/REC-SVG-20010904/DTD/svg10.dtd">
<svg version="1.0" xmlns="http://www.w3.org/2000/svg"
 width="1000.000000pt" height="1000.000000pt" viewBox="0 0 1000.000000 1000.000000"
 preserveAspectRatio="xMidYMid meet">
<metadata>
Created by potrace 1.14, written by Peter Selinger 2001-2017
</metadata>
<g transform="translate(0.000000,1000.000000) scale(0.100000,-0.100000)"
fill="#000000" stroke="none">
<path d="M0 5000 l0 -5000 5000 0 5000 0 0 5000 0 5000 -5000 0 -5000 0 0
-5000z m5168 1989 c53 -5 187 -28 297 -50 110 -22 237 -43 283 -46 l82 -6 0
-284 0 -284 -27 3 c-21 2 -29 9 -31 28 -27 276 -190 401 -586 451 -130 16
-391 7 -466 -16 -174 -53 -345 -192 -413 -335 -20 -41 -43 -104 -52 -140 -22
-94 -30 -244 -16 -313 19 -88 74 -188 144 -260 120 -124 266 -202 672 -358
470 -180 655 -278 805 -429 182 -182 270 -396 270 -658 0 -396 -190 -701 -544
-872 -168 -81 -321 -120 -544 -140 -244 -20 -402 3 -792 120 -91 27 -198 55
-238 62 l-72 12 0 308 0 308 30 0 c29 0 30 -1 30 -47 0 -120 50 -224 156 -330
69 -69 97 -89 185 -132 171 -83 369 -119 594 -108 234 11 427 85 572 221 163
152 243 335 243 554 0 175 -54 304 -180 432 -140 143 -212 182 -707 381 -399
160 -539 227 -663 319 -174 129 -297 314 -330 499 -14 80 -15 265 -1 351 46
284 231 518 516 651 206 97 507 138 783 108z m4612 -764 l0 -505 -1715 0
-1715 0 0 505 0 505 1715 0 1715 0 0 -505z m-6130 -20 l0 -505 -1715 0 -1715
0 0 505 0 505 1715 0 1715 0 0 -505z m5390 -1190 l0 -485 -1342 2 -1343 3 -3
483 -2 482 1345 0 1345 0 0 -485z m-5430 -35 l0 -490 -1350 0 -1350 0 0 490 0
490 1350 0 1350 0 0 -490z m4448 -1112 l-3 -483 -850 0 -850 0 -3 483 -2 482
855 0 855 0 -2 -482z m-4408 -78 l0 -490 -855 0 -855 0 0 490 0 490 855 0 855
0 0 -490z"/>
<path d="M4436 5494 c-21 -20 -21 -21 9 -56 14 -17 25 -38 23 -47 -5 -23 -36
-26 -59 -5 -10 9 -19 14 -19 9 0 -4 8 -14 18 -21 48 -37 99 5 65 53 -10 14
-22 32 -28 40 -7 10 -5 18 9 29 11 8 15 14 9 14 -7 0 -19 -7 -27 -16z"/>
<path d="M4492 5486 c7 -8 15 -12 17 -11 5 6 -10 25 -20 25 -5 0 -4 -6 3 -14z"/>
<path d="M4603 5443 c22 -6 21 -11 -3 -74 -12 -28 -19 -56 -17 -62 2 -6 16 20
31 58 28 70 25 86 -14 84 -11 -1 -10 -3 3 -6z"/>
<path d="M4650 5426 c0 -2 7 -7 16 -10 8 -3 12 -2 9 4 -6 10 -25 14 -25 6z"/>
<path d="M4732 5338 c-11 -29 -23 -61 -27 -70 -4 -10 -3 -18 2 -18 5 0 15 16
21 35 10 25 17 33 30 29 13 -5 14 -4 3 4 -18 13 -5 52 17 52 15 0 15 2 2 10
-24 15 -26 13 -48 -42z"/>
<path d="M4805 5360 c3 -5 8 -10 11 -10 2 0 4 5 4 10 0 6 -5 10 -11 10 -5 0
-7 -4 -4 -10z"/>
<path d="M4879 5260 c-22 -57 -24 -70 -12 -74 21 -9 30 -7 15 3 -11 6 -11 13
-1 35 10 22 18 26 38 22 26 -5 26 -5 3 6 -13 7 -21 17 -17 26 3 7 5 18 5 24 0
10 10 9 55 -6 11 -4 4 2 -15 13 -19 11 -37 20 -40 20 -3 1 -17 -30 -31 -69z"/>
<path d="M5029 5195 c-15 -36 -23 -65 -17 -65 5 0 14 14 19 30 12 34 29 40 29
11 0 -23 19 -76 25 -70 2 3 0 21 -4 41 -8 32 -6 37 15 47 29 13 31 32 6 54
-32 29 -46 19 -73 -48z m69 27 c4 -25 -23 -41 -40 -24 -7 7 -6 17 2 32 14 26
34 22 38 -8z"/>
<path d="M4740 5240 c8 -5 22 -9 30 -9 10 0 8 3 -5 9 -27 12 -43 12 -25 0z"/>
<path d="M5197 5133 c-15 -37 -24 -69 -22 -71 7 -7 7 -6 37 65 15 35 23 65 19
68 -4 2 -20 -26 -34 -62z"/>
<path d="M4900 5176 c0 -2 7 -6 15 -10 8 -3 15 -1 15 4 0 6 -7 10 -15 10 -8 0
-15 -2 -15 -4z"/>
<path d="M5320 5153 c0 -6 -3 -20 -6 -30 -4 -14 -4 -15 4 -4 7 10 13 -6 22
-58 11 -67 26 -87 38 -51 3 7 0 10 -5 7 -6 -4 -15 21 -21 60 -6 36 -16 71 -22
77 -7 7 -10 7 -10 -1z"/>
<path d="M5406 5105 c-9 -26 -7 -32 5 -12 6 10 9 21 6 23 -2 3 -7 -2 -11 -11z"/>
<path d="M5296 5085 c-9 -26 -7 -32 5 -12 6 10 9 21 6 23 -2 3 -7 -2 -11 -11z"/>
<path d="M5386 5055 c-9 -26 -7 -32 5 -12 6 10 9 21 6 23 -2 3 -7 -2 -11 -11z"/>
<path d="M5485 5040 c-28 -31 -24 -79 9 -107 38 -32 62 -30 75 8 13 39 13 39
2 39 -5 0 -12 -13 -16 -30 -8 -35 -27 -38 -55 -10 -33 33 -21 92 23 110 22 9
22 9 1 9 -11 1 -29 -8 -39 -19z"/>
<path d="M5568 5050 c12 -5 22 -15 22 -21 0 -7 3 -9 6 -6 10 10 -16 37 -35 36
-11 0 -9 -3 7 -9z"/>
<path d="M5276 5033 c-6 -14 -5 -15 5 -6 7 7 10 15 7 18 -3 3 -9 -2 -12 -12z"/>
</g>
</svg>
