<?xml version="1.0" standalone="no"?>
<!DOCTYPE svg PUBLIC "-//W3C//DTD SVG 20010904//EN"
 "http://www.w3.org/TR/2001/REC-SVG-20010904/DTD/svg10.dtd">
<svg version="1.0" xmlns="http://www.w3.org/2000/svg"
 width="1000.000000pt" height="1000.000000pt" viewBox="0 0 1000.000000 1000.000000"
 preserveAspectRatio="xMidYMid meet">
<metadata>
Created by potrace 1.14, written by Peter Selinger 2001-2017
</metadata>
<g transform="translate(0.000000,1000.000000) scale(0.100000,-0.100000)"
fill="#000000" stroke="none">
<path d="M4868 9715 c-2 -2 -68 -5 -148 -9 -80 -3 -155 -7 -166 -10 -31 -6
-81 -14 -139 -21 -172 -21 -215 -27 -285 -44 -25 -6 -109 -24 -187 -41 -79
-17 -153 -34 -165 -39 -13 -6 -52 -19 -88 -29 -201 -61 -252 -77 -320 -104
-41 -16 -88 -35 -105 -42 -16 -8 -61 -26 -100 -41 -152 -60 -652 -321 -663
-347 -2 -5 -8 -8 -14 -8 -12 0 -312 -209 -316 -221 -2 -5 -10 -9 -17 -9 -7 0
-15 -4 -17 -9 -1 -4 -48 -46 -103 -92 -390 -324 -671 -631 -933 -1019 -75
-111 -162 -248 -162 -255 0 -1 -22 -40 -48 -86 -102 -177 -212 -412 -281 -599
-40 -107 -80 -215 -90 -240 -10 -25 -30 -90 -46 -145 -15 -55 -38 -137 -52
-182 -23 -79 -27 -96 -38 -153 -2 -14 -13 -68 -24 -120 -25 -121 -29 -143 -37
-210 -3 -30 -8 -63 -10 -74 -2 -10 -6 -44 -10 -75 -3 -31 -8 -58 -9 -61 -10
-16 -20 -284 -20 -525 0 -246 7 -406 20 -455 2 -8 6 -35 9 -60 17 -148 25
-203 46 -325 10 -60 22 -126 25 -145 33 -197 170 -631 274 -875 135 -314 271
-565 451 -835 60 -89 147 -209 160 -220 3 -3 17 -21 30 -40 14 -19 34 -46 46
-60 372 -436 620 -666 1034 -957 215 -150 656 -386 870 -465 30 -12 60 -24 65
-28 6 -4 116 -42 245 -84 248 -80 469 -134 690 -170 14 -2 41 -7 60 -10 19 -3
54 -8 77 -10 22 -3 52 -7 65 -10 163 -35 843 -42 1038 -12 14 2 57 7 95 10 61
6 120 14 202 30 11 3 43 8 70 11 26 4 75 13 108 21 33 7 71 15 85 18 29 6 42
9 130 29 126 30 563 182 720 250 181 79 264 120 405 197 110 61 441 274 465
300 3 3 21 16 40 30 19 13 40 28 45 32 6 5 61 49 124 98 161 127 514 457 561
526 8 11 32 41 52 65 164 196 220 266 258 321 23 35 67 97 96 139 85 122 223
365 324 569 93 187 234 544 280 708 21 75 48 171 60 212 18 62 43 173 66 285
2 11 8 43 14 70 13 67 47 313 54 395 25 270 25 741 1 900 -2 14 -6 57 -10 95
-9 97 -15 147 -20 165 -2 8 -7 33 -10 55 -3 23 -8 52 -10 65 -3 14 -8 41 -11
60 -12 84 -49 246 -86 380 -22 80 -41 152 -43 160 -5 23 -62 189 -85 250 -12
30 -27 71 -34 90 -62 165 -212 480 -288 603 -26 43 -48 80 -48 82 0 8 -112
183 -211 330 -59 88 -138 193 -174 234 -37 40 -100 114 -142 165 -64 76 -137
156 -259 280 -30 31 -193 179 -234 212 -19 16 -44 37 -55 48 -47 43 -368 278
-460 336 -252 160 -457 266 -750 390 -147 62 -371 142 -431 154 -10 3 -118 29
-239 59 -121 31 -233 58 -250 60 -16 3 -95 17 -174 31 -149 27 -182 31 -346
42 -95 6 -492 13 -497 9z"/>
</g>
</svg>
